<?xml version="1.0" encoding="UTF-8"?>
<svg width="512px" height="512px" viewBox="0 0 512 512" version="1.1" xmlns="http://www.w3.org/2000/svg" xmlns:xlink="http://www.w3.org/1999/xlink">
    <!-- Generator: Sketch 49.2 (51160) - http://www.bohemiancoding.com/sketch -->
    <title>weibo</title>
    <desc>Created with Sketch.</desc>
    <defs>
        <linearGradient x1="100%" y1="0%" x2="0%" y2="100%" id="linearGradient-1">
            <stop stop-color="#20B583" offset="0%"></stop>
            <stop stop-color="#0FBAE5" offset="100%"></stop>
        </linearGradient>
    </defs>
    <g id="Page-1" stroke="none" stroke-width="1" fill="none" fill-rule="evenodd">
        <rect id="Rectangle" fill="url(#linearGradient-1)" x="0" y="0" width="512" height="512" rx="100"></rect>
        <g id="picture-(1)" transform="translate(41.000000, 70.000000)" fill-rule="nonzero">
            <path d="M13.4291708,94.3499982 L318.974358,12.6257176 C328.613592,10.0427531 338.515768,15.6918694 341.073482,25.236311 L401.388911,249.930361 C403.952601,259.480767 398.215673,269.305577 388.564487,271.888541 L83.0252758,353.612822 C73.380066,356.195786 63.4838656,350.54667 60.9261519,341.002229 L0.610722791,116.302214 C-1.95296681,106.757772 3.78993693,96.9269975 13.4291708,94.3499982 Z M63.9021832,93.5864429 L380.228014,93.5864429 C390.207878,93.5864429 398.299337,101.597809 398.299337,111.482271 L398.299337,344.104172 C398.299337,353.982669 390.207878,362 380.228014,362 L63.9021832,362 C53.9163433,362 45.8308607,353.982669 45.8308607,344.104172 L45.8308607,111.482271 C45.8308607,101.597809 53.9163433,93.5864429 63.9021832,93.5864429 Z" id="Shape" fill="#2998BE"></path>
            <path d="M398,265.250869 L398,238.486226 L359.061732,94 L63.0985741,94 C53.0976755,94 45,101.991311 45,111.851029 L45,284.690639 L60.118055,340.796422 C62.6856106,350.322921 72.5907496,355.951946 82.2505044,353.375447 L388.25047,271.8617 C392.154699,270.808903 395.588898,268.480288 398,265.250869 Z" id="Shape" fill="#268BAE"></path>
            <path d="M19.4291708,82.2926005 L324.974358,0.625281481 C334.613592,-1.95588269 344.515768,3.68929622 347.073482,13.2270853 L407.388911,237.764524 C409.952601,247.308274 404.215673,257.126235 394.564487,259.7074 L89.0252758,341.374719 C79.380066,343.955883 69.4838656,338.310704 66.9261519,328.772915 L6.61072279,104.229515 C4.04703319,94.6917263 9.78993693,84.8678035 19.4291708,82.2926005 Z" id="Shape" fill="#EDEDED"></path>
            <path d="M398,259.056566 L398,204.776259 L368.254658,94 L63.0985741,94 C53.0976755,94 45,102.020514 45,111.916264 L45,251.149522 L66.1030332,329.748171 C68.6705888,339.309484 78.5757278,344.959079 88.2354826,342.373165 L394.235449,260.561532 C395.576084,260.209179 396.820959,259.677663 398,259.056566 Z" id="Shape" fill="#D5D5D5"></path>
            <path d="M44.2874636,100.109598 L312.367132,28.4747146 C315.916454,27.5223093 319.699785,28.0150214 322.884829,29.8444588 C326.069873,31.6738961 328.395725,34.6901995 329.350719,38.2298108 L379.529228,224.973636 C381.500141,232.350908 377.102369,239.925049 369.705447,241.892818 L101.631765,313.521731 C94.2392085,315.505292 86.6336169,311.138303 84.642191,303.766635 L34.4696691,117.02281 C32.5021795,109.649289 36.8959473,102.080101 44.2874636,100.109598 Z" id="Shape" fill="#4681A0"></path>
            <path d="M343.208444,94 L68.6719885,94 L50.8970643,98.7667579 C47.1549917,102.125989 45.0120734,106.913932 45,111.942627 L45,159.478627 L83.923017,304.748115 C85.9125585,312.133124 93.5109535,316.508016 100.896515,314.520866 L368.716536,242.76232 C376.104289,240.788154 380.49653,233.202671 378.531022,225.812518 L343.208444,94 Z" id="Shape" fill="#3F7490"></path>
            <path d="M75.0985741,82 L391.901426,82 C401.896339,82 410,89.9990221 410,99.868255 L410,332.131745 C410,341.995022 401.896339,350 391.901426,350 L75.0985741,350 C65.0976755,350 57,341.995022 57,332.131745 L57,99.868255 C57,89.9990221 65.0976755,82 75.0985741,82 Z" id="Shape" fill="#F6F6F6"></path>
            <path d="M95.8636364,105.000021 L373.136364,105.000021 C380.7841,104.99342 386.990096,111.176524 387,118.812519 L387,312.193462 C386.995244,315.859933 385.531943,319.374348 382.932006,321.963574 C380.332069,324.552801 376.808471,326.004743 373.136364,325.999988 L95.8636364,325.999988 C92.1915291,326.004743 88.6679306,324.552801 86.0679937,321.963574 C83.4680569,319.374348 82.0047556,315.859933 82,312.193462 L82,118.812519 C82.0015821,115.144525 83.4636747,111.627654 86.0641284,109.036792 C88.6645821,106.445931 92.1900091,104.99368 95.8636364,105.000021 Z" id="Shape" fill="#A3E0F5"></path>
            <path d="M105.866577,260 C97.6098706,260 89.6444378,260.695431 82,261.876464 L82,312.139331 C82.0047266,315.820177 83.4590956,319.348371 86.0431619,321.947749 C88.6272282,324.547127 92.129318,326.004761 95.7790099,325.999988 L199.698187,325.999988 C200.476897,323.062392 201,320.07084 201,316.995357 C201.005944,285.52711 158.408712,260 105.866577,260 Z" id="Shape" fill="#3DB39E"></path>
            <path d="M387,313.121999 L387,238.422 C368.399314,233.64 347.991395,231 326.568784,231 C240.103813,231 170,273.983999 170,327 L373.082508,326.999999 C380.758585,327.003321 386.986749,320.79283 387,313.121999 Z" id="Shape" fill="#4BC2AD"></path>
            <path d="M82,118.882976 L82,188.41179 C84.9528437,188.765916 87.9356959,189 90.984567,189 C132.414404,189 166,155.430019 166,114.015238 C166,110.960148 165.759931,107.959077 165.40583,105.000021 L95.9179766,105.000021 C92.2309879,104.993648 88.6926521,106.453116 86.0821786,109.057021 C83.4717052,111.660925 82.0031798,115.19572 82,118.882976 Z" id="Shape" fill="#EFC75E"></path>
        </g>
        <g id="share-(1)" transform="translate(328.000000, 175.000000)" fill="#0FBAE5" fill-rule="nonzero">
            <path d="M14,0 L86,3.55271368e-15 C93.7319865,2.1323708e-15 100,6.2680135 100,14 L100,86 C100,93.7319865 93.7319865,100 86,100 L14,100 C6.2680135,100 9.46895252e-16,93.7319865 0,86 L3.55271368e-15,14 C2.60581843e-15,6.2680135 6.2680135,1.42034288e-15 14,0 Z M89.2100035,44.495317 L89.2100035,15.9478809 C89.2100035,13.3285324 87.0868323,11.1938212 84.4559462,11.1938212 L55.908524,11.1938212 C53.2891768,11.1938212 51.1544666,13.3169935 51.1544666,15.9478809 C51.1544666,18.5672293 53.2776379,20.7019406 55.908524,20.7019406 L72.9631279,20.7019406 L47.7850861,45.8799946 C46.9196631,46.7454181 46.3888703,47.933933 46.3888703,49.2493767 C46.3888703,51.8687252 48.5120415,54.0034364 51.1429276,54.0034364 C52.4583707,54.0034364 53.646885,53.4726434 54.5123081,52.6072199 L79.7018888,27.4291658 L79.7018888,44.495317 C79.7018888,47.1146655 81.836599,49.2493767 84.4559462,49.2493767 C87.0752933,49.2493767 89.2100035,47.1262044 89.2100035,44.495317 Z" id="Shape"></path>
        </g>
    </g>
</svg>